<svg id="artwork" xmlns="http://www.w3.org/2000/svg" viewBox="0 0 42 42"><defs><style>.cls-1{fill:#012169;}</style></defs><title>user-icon-rgb-42px</title><path class="cls-1" d="M20.9,42A21,21,0,1,1,42,21.1,21,21,0,0,1,20.9,42ZM21.09,1.76A19.24,19.24,0,1,0,40.24,21.09,19.27,19.27,0,0,0,21.09,1.76Z"/><path class="cls-1" d="M8.83,31a0.88,0.88,0,0,1-.67-1.46,13.39,13.39,0,0,1,7.29-4.14c-1.95-2.62-3.46-8-1.8-11.89,1.2-2.82,3.75-4.37,7.19-4.37s6,1.56,7.24,4.4c1.69,3.93.23,9.28-1.65,11.85a13.59,13.59,0,0,1,7.4,4.14,0.88,0.88,0,0,1-1.33,1.16,12.18,12.18,0,0,0-7-3.7l-0.15,0a3.6,3.6,0,0,1-.67-0.34l-0.16-.09a0.89,0.89,0,0,1-.34-0.81,1.81,1.81,0,0,1,.21-0.61,0.9,0.9,0,0,1,.17-0.23l0.12-.11c1.73-1.83,3.27-7.07,1.79-10.52C25.52,12.1,23.58,11,20.84,11s-4.64,1.14-5.56,3.29c-1.47,3.45.16,8.73,2,10.61l0.07,0.07,0.16,0.21a2.07,2.07,0,0,1,.21.51,0.88,0.88,0,0,1-.26.85,2.82,2.82,0,0,1-.94.53l-0.13,0a12,12,0,0,0-6.86,3.68A0.88,0.88,0,0,1,8.83,31Z"/></svg>